<svg xmlns="http://www.w3.org/2000/svg" width="200" height="140" viewBox="0 0 200 140">
  <g fill="none" fill-rule="evenodd">
    <g transform="translate(27 4)">
      <path fill="#000000" d="M119.1992,98.9296 C119.1672,98.5016 119.1242,98.0706 119.0732,97.6356 C119.0582,97.5186 119.0452,97.4016 119.0302,97.2836 C118.9752,96.8656 118.9092,96.4436 118.8362,96.0196 C118.8142,95.8886 118.7942,95.7586 118.7702,95.6276 C118.6912,95.2006 118.5992,94.7696 118.5022,94.3366 C118.4742,94.2116 118.4502,94.0876 118.4212,93.9626 C118.4202,93.9566 118.4182,93.9516 118.4172,93.9466 C118.1892,92.9836 118.5782,91.9726 119.4202,91.4536 C127.0202,86.7756 131.3262,80.1716 131.3262,73.0546 C131.3262,65.9366 127.0202,59.3326 119.4212,54.6546 C118.5782,54.1356 118.1892,53.1236 118.4182,52.1616 C118.4212,52.1496 118.4242,52.1366 118.4272,52.1246 C118.4492,52.0276 118.4672,51.9326 118.4892,51.8356 C118.5962,51.3646 118.6952,50.8956 118.7802,50.4306 C118.7962,50.3466 118.8082,50.2626 118.8232,50.1776 C118.9072,49.6956 118.9812,49.2166 119.0432,48.7416 C119.0502,48.6846 119.0562,48.6286 119.0632,48.5716 C119.1252,48.0646 119.1752,47.5636 119.2102,47.0656 C119.2122,47.0386 119.2142,47.0126 119.2162,46.9856 C119.4752,43.2276 118.9772,39.7506 117.7222,36.7006 C117.6212,36.4546 117.5082,36.2156 117.3972,35.9746 C117.3282,35.8256 117.2642,35.6736 117.1912,35.5256 C117.0362,35.2106 116.8682,34.9046 116.6972,34.6006 C116.6602,34.5346 116.6252,34.4676 116.5872,34.4026 C116.3952,34.0716 116.1902,33.7496 115.9782,33.4326 C115.9532,33.3966 115.9302,33.3596 115.9052,33.3236 C115.6862,33.0006 115.4552,32.6866 115.2142,32.3796 C115.1992,32.3606 115.1872,32.3406 115.1722,32.3216 C115.1582,32.3046 115.1432,32.2886 115.1292,32.2716 C114.9112,31.9976 114.6862,31.7296 114.4512,31.4686 C114.4122,31.4246 114.3722,31.3826 114.3332,31.3406 C114.1612,31.1526 113.9962,30.9606 113.8162,30.7796 C108.7832,25.7456 101.0682,24.1206 92.3852,26.1876 C91.4462,26.4106 90.4552,26.0106 89.9492,25.1886 C88.9052,23.4956 87.7642,21.9706 86.5452,20.6136 C86.5432,20.6116 86.5422,20.6086 86.5402,20.6066 C86.5332,20.5986 86.5262,20.5926 86.5192,20.5856 C86.0312,20.0416 85.5292,19.5286 85.0152,19.0426 C85.0142,19.0416 85.0132,19.0406 85.0122,19.0396 C81.3462,15.5726 77.0792,13.5756 72.5732,13.3106 C72.5222,13.3026 72.4732,13.2856 72.4212,13.2856 L71.9682,13.2856 C71.8252,13.2826 71.6842,13.2686 71.5422,13.2686 L71.5412,13.2686 C71.3992,13.2686 71.2582,13.2826 71.1152,13.2856 L59.7842,13.2856 C59.7292,13.2856 59.6752,13.2906 59.6232,13.2996 C52.9092,13.3596 46.5632,17.3246 41.9752,24.2646 C41.5422,24.9196 40.8242,25.3296 40.0392,25.3296 L32.0132,25.3296 C31.9852,25.3296 31.9572,25.3306 31.9292,25.3336 L31.8672,25.3336 C25.0682,25.3336 19.3792,27.9586 15.8372,32.7356 C12.1142,37.7576 11.1032,44.6026 12.9172,52.2076 C13.1422,53.1516 12.7342,54.1446 11.9072,54.6536 C4.3062,59.3316 0.0002,65.9366 0.0002,73.0546 C0.0002,80.1716 4.3052,86.7756 11.9062,91.4536 C12.7282,91.9606 13.1452,92.9466 12.9212,93.8856 C11.1582,101.2776 12.0652,107.9836 15.5482,112.9686 C18.7892,117.6076 24.0482,120.3596 30.3692,120.7296 C30.4482,120.7496 30.5292,120.7596 30.6132,120.7596 L40.0242,120.7596 C40.8112,120.7596 41.5312,121.1716 41.9642,121.8286 C46.6942,129.0036 53.2422,132.9656 60.1872,132.8046 C60.2542,132.8196 60.3232,132.8266 60.3942,132.8266 L71.2382,132.8266 C71.3392,132.8286 71.4402,132.8386 71.5422,132.8386 C71.6442,132.8386 71.7442,132.8286 71.8462,132.8266 L72.4212,132.8266 C72.4812,132.8266 72.5362,132.8076 72.5932,132.7966 C78.6382,132.4336 84.2522,128.9546 88.5572,122.9916 C88.5752,122.9666 88.5942,122.9436 88.6122,122.9186 C88.6132,122.9176 88.6132,122.9156 88.6142,122.9146 C89.0702,122.2796 89.5132,121.6186 89.9402,120.9296 C90.4502,120.1066 91.4382,119.6946 92.3802,119.9186 C101.0652,121.9866 108.7822,120.3626 113.8162,115.3276 C114.6892,114.4546 115.4492,113.4926 116.1162,112.4666 C116.1202,112.4606 116.1232,112.4556 116.1272,112.4496 C116.3402,112.1216 116.5402,111.7866 116.7322,111.4456 C116.7592,111.3976 116.7852,111.3496 116.8112,111.3016 C116.9812,110.9916 117.1432,110.6766 117.2952,110.3556 C117.3422,110.2586 117.3852,110.1596 117.4302,110.0616 C117.5582,109.7776 117.6842,109.4926 117.7992,109.2006 C117.8642,109.0366 117.9222,108.8706 117.9832,108.7056 C118.0702,108.4656 118.1592,108.2266 118.2382,107.9806 C118.3302,107.6946 118.4102,107.4016 118.4912,107.1096 C118.5282,106.9726 118.5712,106.8406 118.6052,106.7026 C118.9582,105.3026 119.1702,103.8306 119.2482,102.3026 C119.2492,102.2686 119.2502,102.2346 119.2512,102.2006 C119.2732,101.7296 119.2822,101.2546 119.2782,100.7746 C119.2782,100.7046 119.2752,100.6356 119.2742,100.5666 C119.2672,100.1216 119.2492,99.6726 119.2202,99.2196 C119.2132,99.1226 119.2062,99.0266 119.1992,98.9296"/>
      <path fill="#FFFFFF" d="M71.5425,130.4389 C64.6955,130.4389 58.3145,125.7799 54.0345,117.6559 C53.7915,117.1949 53.3165,116.9089 52.7965,116.9089 C52.6555,116.9089 52.5175,116.9299 52.3825,116.9709 C49.3395,117.9139 46.3875,118.3919 43.6075,118.3919 C38.4515,118.3919 34.0795,116.7459 30.9655,113.6309 C26.6255,109.2929 25.1835,102.6459 26.9045,94.9149 C27.3985,92.6929 26.4405,90.3799 24.5205,89.1589 C17.8375,84.9099 14.1575,79.1909 14.1575,73.0539 C14.1575,66.9179 17.8375,61.1979 24.5205,56.9489 C26.4405,55.7289 27.3985,53.4149 26.9045,51.1929 C25.1835,43.4629 26.6255,36.8159 30.9655,32.4769 C34.0795,29.3609 38.4505,27.7149 43.6065,27.7149 C46.3865,27.7149 49.3385,28.1929 52.3825,29.1359 C52.5175,29.1779 52.6555,29.1989 52.7955,29.1989 C53.3175,29.1989 53.7925,28.9129 54.0355,28.4519 C58.3145,20.3279 64.6955,15.6689 71.5425,15.6689 C78.3885,15.6689 84.7695,20.3279 89.0485,28.4519 C89.2915,28.9129 89.7665,29.1989 90.2885,29.1989 C90.4275,29.1989 90.5655,29.1779 90.6995,29.1369 C93.7445,28.1939 96.6965,27.7159 99.4765,27.7159 C104.6325,27.7159 109.0045,29.3619 112.1185,32.4769 C116.4585,36.8159 117.8995,43.4619 116.1795,51.1929 C115.6855,53.4149 116.6435,55.7279 118.5635,56.9489 C125.2465,61.1979 128.9265,66.9179 128.9265,73.0539 C128.9265,79.1909 125.2465,84.9109 118.5635,89.1589 C116.6435,90.3799 115.6855,92.6929 116.1795,94.9149 C117.8995,102.6459 116.4585,109.2929 112.1185,113.6309 C109.0045,116.7459 104.6325,118.3929 99.4755,118.3929 C97.5345,118.3929 95.4905,118.1569 93.4025,117.6919 C93.0145,117.6059 92.6165,117.5619 92.2205,117.5619 C90.3575,117.5619 88.6485,118.5019 87.6465,120.0759 C83.3975,126.7589 77.6785,130.4389 71.5425,130.4389"/>
      <path fill="#D3D6ED" d="M49.9111 120.0971C49.8751 120.1051 49.8401 120.1121 49.8041 120.1201 47.0351 120.7011 46.1081 124.2161 48.2251 126.0921 51.8471 129.3001 56.0341 130.9651 60.3561 130.7991 60.4491 130.7971 60.5411 130.8051 60.6301 130.8261L63.3221 130.8261C59.6371 128.9561 56.3011 125.8261 53.5751 121.6191 52.7841 120.3991 51.3321 119.7941 49.9111 120.0971M49.9111 26.0112C51.3331 26.3142 52.7841 25.7092 53.5751 24.4892 56.2991 20.2862 59.6321 17.1572 63.3131 15.2862L59.9391 15.2862C59.8891 15.2942 59.8371 15.2992 59.7851 15.2992L59.7791 15.2992C55.6641 15.2992 51.6771 16.9692 48.2131 20.0392 46.1051 21.9072 47.0551 25.4112 49.8111 25.9902 49.8451 25.9972 49.8781 26.0042 49.9111 26.0112M31.1973 116.9916C30.5163 116.4876 29.8723 115.9336 29.2673 115.3286 24.3903 110.4506 22.7133 103.0536 24.4943 94.6996 24.8003 93.2686 24.1963 91.8116 22.9683 91.0156 15.8013 86.3676 11.7573 79.9516 11.7573 73.0536 11.7573 66.1566 15.8013 59.7406 22.9683 55.0926 24.1963 54.2966 24.8003 52.8386 24.4943 51.4086 22.7133 43.0536 24.3903 35.6576 29.2673 30.7796 30.6973 29.3486 32.3503 28.2036 34.1753 27.3296L32.1003 27.3296C32.0703 27.3326 32.0413 27.3316 32.0063 27.3336 25.8303 27.2686 20.6223 29.6396 17.4443 33.9266 14.0083 38.5606 13.1523 44.9956 14.9743 52.1996 15.3613 53.7286 14.7083 55.3066 13.3543 56.1156 6.1123 60.4366 2.0003 66.5336 2.0003 73.0536 2.0003 79.5746 6.1123 85.6706 13.3533 89.9926 14.7093 90.8016 15.3613 92.3816 14.9743 93.9116 13.2053 100.9136 13.9713 107.2206 17.1873 111.8226 19.8283 115.6026 24.0163 117.9196 29.0723 118.6046 30.5933 118.8106 32.1143 117.6716 31.1973 116.9916M96.1797 46.8681C95.3987 46.0871 94.1327 46.0871 93.3517 46.8681L79.9657 60.2541 66.5797 73.6401C65.7987 74.4211 64.5327 74.4211 63.7517 73.6401L51.7797 61.6681C50.9987 60.8871 49.7327 60.8871 48.9517 61.6681L36.9797 73.6401C36.1987 74.4211 36.1987 75.6871 36.9797 76.4681L50.3657 89.8541 63.7517 103.2401C64.5327 104.0211 65.7987 104.0211 66.5797 103.2401L79.9657 89.8541 94.7657 75.0541 108.1517 61.6681C108.9327 60.8871 108.9327 59.6211 108.1517 58.8401L96.1797 46.8681z"/>
      <path fill="#7B80D6" d="M64.085 76.6401C63.71 76.2651 63.201 76.0541 62.67 76.0541L59.741 76.0541C58.851 76.0541 58.404 77.1311 59.034 77.7621L84.634 103.3611C84.822 103.5491 85.076 103.6541 85.341 103.6541L88.685 103.6541C89.576 103.6541 90.022 102.5771 89.392 101.9471L64.085 76.6401zM59.7412 74.0541L63.0852 74.0541C63.3502 74.0541 63.6042 73.9491 63.7922 73.7621L74.5922 62.9611C75.2212 62.3311 74.7762 61.2541 73.8852 61.2541L70.9552 61.2541C70.4252 61.2541 69.9162 61.4651 69.5412 61.8401L59.0342 72.3471C58.4042 72.9771 58.8502 74.0541 59.7412 74.0541"/>
      <path fill="#FFFFFF" d="M19.0874,42.6967 C19.0874,46.5627 15.9534,49.6967 12.0874,49.6967 C8.2214,49.6967 5.0874,46.5627 5.0874,42.6967 C5.0874,38.8307 8.2214,35.6967 12.0874,35.6967 C15.9534,35.6967 19.0874,38.8307 19.0874,42.6967"/>
      <path fill="#000000" d="M12.0874,36.6967 C8.7784,36.6967 6.0874,39.3877 6.0874,42.6967 C6.0874,46.0057 8.7784,48.6967 12.0874,48.6967 C15.3964,48.6967 18.0874,46.0057 18.0874,42.6967 C18.0874,39.3877 15.3964,36.6967 12.0874,36.6967 M12.0874,50.6967 C7.6764,50.6967 4.0874,47.1077 4.0874,42.6967 C4.0874,38.2857 7.6764,34.6967 12.0874,34.6967 C16.4984,34.6967 20.0874,38.2857 20.0874,42.6967 C20.0874,47.1077 16.4984,50.6967 12.0874,50.6967"/>
      <path fill="#ACB0FF" d="M146.9131,97.8256 C146.9131,100.0346 145.1221,101.8256 142.9131,101.8256 C140.7041,101.8256 138.9131,100.0346 138.9131,97.8256 C138.9131,95.6166 140.7041,93.8256 142.9131,93.8256 C145.1221,93.8256 146.9131,95.6166 146.9131,97.8256"/>
      <polygon fill="#D3D6ED" points="125.326 120.425 131.326 110.033 137.326 120.425"/>
      <path fill="#000000" d="M127.0581,119.4252 L135.5941,119.4252 L131.3261,112.0342 L127.0581,119.4252 Z M137.3261,121.4252 L125.3261,121.4252 C124.9691,121.4252 124.6391,121.2352 124.4601,120.9252 C124.2821,120.6152 124.2821,120.2352 124.4601,119.9252 L130.4601,109.5342 C130.8171,108.9152 131.8351,108.9152 132.1921,109.5342 L138.1921,119.9252 C138.3711,120.2352 138.3711,120.6152 138.1921,120.9252 C138.0141,121.2352 137.6831,121.4252 137.3261,121.4252 L137.3261,121.4252 Z"/>
      <path fill="#ACB0FF" d="M33.8843,4.5102 L33.8843,4.5102 C34.7173,4.5102 35.3943,5.1862 35.3943,6.0202 L35.3943,6.0202 C35.3943,6.5732 35.8423,7.0202 36.3943,7.0202 C36.9463,7.0202 37.3943,6.5732 37.3943,6.0202 L37.3943,6.0202 C37.3943,5.1862 38.0703,4.5102 38.9043,4.5102 L38.9043,4.5102 C39.4563,4.5102 39.9043,4.0622 39.9043,3.5102 C39.9043,2.9582 39.4563,2.5102 38.9043,2.5102 L38.9043,2.5102 C38.0703,2.5102 37.3943,1.8342 37.3943,1.0002 C37.3943,0.4482 36.9463,0.0002 36.3943,0.0002 C35.8423,0.0002 35.3943,0.4482 35.3943,1.0002 C35.3943,1.8342 34.7173,2.5102 33.8843,2.5102 C33.3323,2.5102 32.8843,2.9582 32.8843,3.5102 C32.8843,4.0622 33.3323,4.5102 33.8843,4.5102"/>
      <path fill="#000000" d="M56.8716 41.8066C57.1276 41.8066 57.3836 41.7086 57.5786 41.5136L58.7616 40.3296C59.1526 39.9396 59.1526 39.3066 58.7616 38.9156 58.3716 38.5256 57.7376 38.5256 57.3476 38.9156L56.1646 40.0996C55.7736 40.4906 55.7736 41.1236 56.1646 41.5136 56.3596 41.7086 56.6156 41.8066 56.8716 41.8066M50.9556 47.7226C51.2116 47.7226 51.4676 47.6246 51.6626 47.4296L52.8456 46.2466C53.2366 45.8556 53.2366 45.2226 52.8456 44.8326 52.4556 44.4416 51.8226 44.4416 51.4316 44.8326L50.2486 46.0156C49.8576 46.4066 49.8576 47.0386 50.2486 47.4296 50.4436 47.6246 50.6996 47.7226 50.9556 47.7226M57.3477 47.4296C57.5427 47.6246 57.7987 47.7226 58.0547 47.7226 58.3107 47.7226 58.5667 47.6246 58.7617 47.4296 59.1527 47.0386 59.1527 46.4066 58.7617 46.0156L57.5787 44.8326C57.1877 44.4416 56.5557 44.4416 56.1647 44.8326 55.7737 45.2226 55.7737 45.8556 56.1647 46.2466L57.3477 47.4296zM51.4316 41.5136C51.6266 41.7086 51.8826 41.8066 52.1386 41.8066 52.3946 41.8066 52.6506 41.7086 52.8456 41.5136 53.2366 41.1236 53.2366 40.4906 52.8456 40.0996L51.6626 38.9156C51.2716 38.5256 50.6396 38.5256 50.2486 38.9156 49.8576 39.3056 49.8576 39.9396 50.2486 40.3296L51.4316 41.5136z"/>
      <path stroke="#000000" stroke-width="2" d="M146.9131,97.8256 C146.9131,100.0346 145.1221,101.8256 142.9131,101.8256 C140.7041,101.8256 138.9131,100.0346 138.9131,97.8256 C138.9131,95.6166 140.7041,93.8256 142.9131,93.8256 C145.1221,93.8256 146.9131,95.6166 146.9131,97.8256 Z" stroke-linecap="round" stroke-linejoin="round"/>
      <path fill="#7B80D6" d="M118.2852,46.4541 L115.4312,46.4541 C114.8522,46.4541 114.2972,46.6841 113.8882,47.0931 L91.8412,69.1401 C91.0602,69.9211 91.0602,71.1871 91.8412,71.9691 L92.8062,72.9331 C93.1972,73.3241 93.8292,73.3241 94.2202,72.9331 L108.0662,59.0871 L108.7372,59.8401 L117.2612,51.3171 L115.8372,51.3171 L118.9922,48.1621 C119.6222,47.5311 119.1762,46.4541 118.2852,46.4541"/>
      <path fill="#ACB0FF" d="M135.085,58.8398 L124.527,48.2828 C123.747,47.5018 122.48,47.5018 121.699,48.2828 L116.54,53.4418 L115.082,53.4418 L106.984,61.5398 L108.234,61.7468 L94.22,75.7608 C93.832,76.1508 93.195,76.1508 92.806,75.7608 L79.42,62.3758 C79.029,61.9848 78.397,61.9848 78.006,62.3758 L66.034,74.3468 C65.644,74.7378 65.644,75.3708 66.034,75.7618 L92.806,102.5328 C93.197,102.9228 93.83,102.9228 94.22,102.5328 L135.085,61.6688 C135.866,60.8868 135.866,59.6208 135.085,58.8398"/>
      <path fill="#000000" d="M135.085,61.6684 L94.22,102.5324 C93.83,102.9234 93.197,102.9234 92.806,102.5324 L66.034,75.7614 C65.644,75.3714 65.644,74.7374 66.034,74.3474 L78.006,62.3754 C78.397,61.9844 79.029,61.9844 79.42,62.3754 L92.806,75.7614 C93.195,76.1504 93.832,76.1504 94.22,75.7614 L110.302,59.6794 C110.689,59.2934 110.689,58.6664 110.302,58.2794 L110.288,58.2654 C109.901,57.8784 109.274,57.8784 108.888,58.2654 L94.22,72.9334 C93.83,73.3234 93.197,73.3234 92.806,72.9334 L91.841,71.9684 C91.061,71.1874 91.061,69.9214 91.841,69.1404 L113.888,47.0934 C114.297,46.6844 114.853,46.4544 115.431,46.4544 L118.285,46.4544 C119.176,46.4544 119.622,47.5314 118.992,48.1614 L114.272,52.8814 C113.885,53.2684 113.885,53.8954 114.272,54.2814 L114.286,54.2954 C114.673,54.6824 115.299,54.6824 115.686,54.2954 L121.699,48.2824 C122.48,47.5014 123.747,47.5014 124.527,48.2824 L135.085,58.8394 C135.866,59.6214 135.866,60.8874 135.085,61.6684 M88.685,103.6534 L85.341,103.6534 C85.076,103.6534 84.822,103.5484 84.634,103.3614 L59.034,77.7614 C58.404,77.1314 58.851,76.0544 59.741,76.0544 L62.67,76.0544 C63.201,76.0544 63.71,76.2654 64.085,76.6404 L89.392,101.9464 C90.022,102.5764 89.576,103.6534 88.685,103.6534 M59.034,72.3474 L69.541,61.8394 C69.917,61.4644 70.425,61.2534 70.956,61.2534 L73.885,61.2534 C74.776,61.2534 75.222,62.3314 74.592,62.9614 L63.792,73.7614 C63.605,73.9494 63.35,74.0544 63.085,74.0544 L59.741,74.0544 C58.85,74.0544 58.404,72.9774 59.034,72.3474 M138.62,59.5464 L123.82,44.7474 C123.726,44.6524 123.614,44.5794 123.493,44.5294 C123.372,44.4804 123.243,44.4544 123.113,44.4544 L114.113,44.4544 C113.848,44.4544 113.594,44.5594 113.406,44.7474 L89.013,69.1404 L79.42,59.5464 C79.232,59.3594 78.978,59.2534 78.713,59.2534 L69.713,59.2534 C69.448,59.2534 69.193,59.3594 69.006,59.5464 L54.206,74.3474 C53.815,74.7374 53.815,75.3704 54.206,75.7614 L83.806,105.3604 C83.994,105.5484 84.248,105.6534 84.513,105.6534 L93.513,105.6534 C93.643,105.6534 93.772,105.6284 93.893,105.5784 C94.014,105.5284 94.126,105.4554 94.22,105.3604 L138.62,60.9604 C139.011,60.5704 139.011,59.9374 138.62,59.5464"/>
    </g>
    <rect width="200" height="140"/>
  </g>
</svg>
