<svg xmlns="http://www.w3.org/2000/svg" width="200" height="140" viewBox="0 0 200 140" xmlns:xlink="http://www.w3.org/1999/xlink">
  <defs>
    <polygon id="a" points="18.887 16.766 18.887 .947 .887 .947 .887 16.766 18.887 16.766"/>
    <polygon id="c" points="0 12.806 0 .152 12.702 .152 12.702 12.806"/>
  </defs>
  <g fill="none" fill-rule="evenodd">
    <g transform="translate(16 2)">
      <polygon fill="#FFFFFF" points="151.887 101.166 159.887 87.311 167.887 101.166"/>
      <g transform="translate(0 .4)">
        <g transform="translate(150 85)">
          <mask id="b" fill="white">
            <use xlink:href="#a"/>
          </mask>
          <path fill="#000000" d="M3.6196,14.766 L16.1546,14.766 L9.8876,3.911 L3.6196,14.766 Z M17.8876,16.766 L1.8876,16.766 C1.5296,16.766 1.1996,16.576 1.0206,16.266 C0.8426,15.956 0.8426,15.576 1.0206,15.266 L9.0206,1.411 C9.3786,0.792 10.3956,0.792 10.7536,1.411 L18.7536,15.266 C18.9326,15.576 18.9326,15.956 18.7536,16.266 C18.5746,16.576 18.2446,16.766 17.8876,16.766 L17.8876,16.766 Z" mask="url(#b)"/>
        </g>
        <path fill="#ACB0FF" d="M139.3774,86.7772 L139.3774,86.7772 C140.2104,86.7772 140.8874,87.4532 140.8874,88.2872 L140.8874,88.2872 C140.8874,88.8402 141.3344,89.2872 141.8874,89.2872 C142.4394,89.2872 142.8874,88.8402 142.8874,88.2872 L142.8874,88.2872 C142.8874,87.4532 143.5634,86.7772 144.3974,86.7772 C144.9494,86.7772 145.3974,86.3292 145.3974,85.7772 C145.3974,85.2252 144.9494,84.7772 144.3974,84.7772 C143.5634,84.7772 142.8874,84.1012 142.8874,83.2672 C142.8874,82.7152 142.4394,82.2672 141.8874,82.2672 C141.3344,82.2672 140.8874,82.7152 140.8874,83.2672 C140.8874,84.1012 140.2104,84.7772 139.3774,84.7772 C138.8244,84.7772 138.3774,85.2252 138.3774,85.7772 C138.3774,86.3292 138.8244,86.7772 139.3774,86.7772"/>
        <path fill="#D3D6ED" d="M14.4561 87.411C14.7121 87.411 14.9681 87.313 15.1631 87.118L16.3461 85.934C16.7371 85.544 16.7371 84.911 16.3461 84.52 15.9561 84.13 15.3221 84.13 14.9321 84.52L13.7491 85.704C13.3581 86.095 13.3581 86.728 13.7491 87.118 13.9441 87.313 14.2001 87.411 14.4561 87.411M8.54 93.327C8.796 93.327 9.052 93.229 9.247 93.034L10.43 91.851C10.821 91.46 10.821 90.827 10.43 90.437 10.04 90.046 9.407 90.046 9.016 90.437L7.833 91.62C7.442 92.011 7.442 92.643 7.833 93.034 8.028 93.229 8.284 93.327 8.54 93.327M14.9321 93.034C15.1271 93.229 15.3831 93.327 15.6391 93.327 15.8951 93.327 16.1511 93.229 16.3461 93.034 16.7371 92.643 16.7371 92.011 16.3461 91.62L15.1631 90.437C14.7721 90.046 14.1401 90.046 13.7491 90.437 13.3581 90.827 13.3581 91.46 13.7491 91.851L14.9321 93.034zM9.0161 87.118C9.2111 87.313 9.4671 87.411 9.7231 87.411 9.9791 87.411 10.2351 87.313 10.4301 87.118 10.8211 86.728 10.8211 86.095 10.4301 85.704L9.2471 84.52C8.8561 84.13 8.2241 84.13 7.8331 84.52 7.4421 84.91 7.4421 85.544 7.8331 85.934L9.0161 87.118z"/>
        <g transform="translate(0 6)">
          <mask id="d" fill="white">
            <use xlink:href="#c"/>
          </mask>
          <path fill="#7B80D6" d="M11.0464,3.1551 L9.8224,1.9311 C7.7344,-0.1569 4.3434,-0.4949 2.0674,1.3851 C-0.5446,3.5421 -0.6816,7.4171 1.6554,9.7541 L3.0514,11.1501 C5.2594,13.3581 8.8384,13.3581 11.0464,11.1501 C13.2544,8.9421 13.2544,5.3631 11.0464,3.1551" mask="url(#d)"/>
        </g>
        <path fill="#7B80D6" d="M68.5205,2.6707 L68.2295,2.3787 C66.1415,0.2917 62.7505,-0.0463 60.4745,1.8337 C57.8625,3.9907 57.7255,7.8647 60.0625,10.2027 L60.5255,10.6657 C62.7335,12.8727 66.3125,12.8727 68.5205,10.6657 C70.7285,8.4577 70.7285,4.8787 68.5205,2.6707"/>
        <path fill="#FFFFFF" d="M122.938,35.6766 L121.139,37.4756 L122.553,38.8896 L124.352,37.0906 C124.991,36.4516 126.031,36.4516 126.669,37.0906 L138.096,48.5176 C138.735,49.1556 138.735,50.1956 138.096,50.8346 L101.274,87.6566 C99.855,89.0746 99.855,91.3836 101.274,92.8016 L107.195,98.7226 L108.609,97.3086 L102.688,91.3876 C102.049,90.7486 102.049,89.7096 102.688,89.0706 L139.51,52.2486 C140.929,50.8296 140.928,48.5216 139.51,47.1036 L128.083,35.6766 C126.665,34.2576 124.357,34.2576 122.938,35.6766"/>
        <path fill="#D3D6ED" d="M56.6255 113.4276C56.5665 113.3706 56.5025 113.3226 56.4445 113.2636L47.4155 104.2346C47.3235 104.1426 47.2455 104.0436 47.1575 103.9496L45.7295 105.3776C45.3395 105.7676 45.3395 106.4016 45.7295 106.7916L53.7885 114.8506C54.1785 115.2396 54.8135 115.2396 55.2025 114.8506L56.6255 113.4276zM123.314 46.7396L124.737 45.3166C125.127 44.9266 125.126 44.2916 124.737 43.9016L116.678 35.8436C116.289 35.4536 115.654 35.4526 115.264 35.8436L113.835 37.2716C113.93 37.3586 114.029 37.4376 114.121 37.5296L123.15 46.5576C123.209 46.6166 123.257 46.6796 123.314 46.7396"/>
        <path fill="#7B80D6" d="M74.7969,63.4964 C75.1879,63.8874 75.1879,64.5204 74.7969,64.9104 L73.5519,66.1554 C73.1609,66.5464 72.5279,66.5464 72.1379,66.1554 C71.7469,65.7654 71.7469,65.1324 72.1379,64.7414 L73.3829,63.4964 C73.7729,63.1054 74.4059,63.1054 74.7969,63.4964 L74.7969,63.4964 Z M60.4189,76.4604 C60.8089,76.0704 61.4419,76.0704 61.8329,76.4604 C62.2229,76.8504 62.2229,77.4844 61.8329,77.8744 L48.8299,90.8784 C45.5369,94.1704 45.5369,99.5274 48.8299,102.8204 L52.3469,106.3374 C52.3979,106.3254 52.4419,106.2994 52.4949,106.2944 C61.2549,105.5574 68.9229,100.9754 74.0909,93.3954 C75.5039,91.3214 76.6979,88.8964 77.9629,86.3294 C80.7329,80.7054 83.5959,74.8894 89.2099,71.8934 C92.9549,69.8944 97.3619,69.8414 101.6259,69.7894 C106.8289,69.7264 111.7429,69.6664 115.3509,66.2984 L121.7349,59.9144 C125.0279,56.6214 125.0279,51.2654 121.7359,47.9724 L112.7069,38.9434 C109.4139,35.6504 104.0569,35.6504 100.7639,38.9434 L78.5279,61.1794 C78.1379,61.5704 77.5049,61.5704 77.1139,61.1794 C76.7239,60.7884 76.7239,60.1554 77.1139,59.7654 L99.3499,37.5294 C100.0489,36.8294 100.8279,36.2604 101.6509,35.8014 C92.2879,26.4374 81.6259,15.7754 80.3689,14.5184 L79.7029,13.8524 C77.4949,11.6444 73.9159,11.6454 71.7079,13.8524 C69.5009,16.0604 69.5009,19.6404 71.7079,21.8474 L72.3749,22.5144 C74.5819,24.7214 74.5819,28.3014 72.3749,30.5084 C70.1669,32.7164 66.5879,32.7164 64.3799,30.5084 L47.9899,14.1194 C45.7819,11.9114 42.2029,11.9114 39.9949,14.1194 C37.7879,16.3274 37.7879,19.9064 39.9949,22.1144 L42.3939,24.5124 C44.6019,26.7204 44.6019,30.2994 42.3939,32.5074 C40.1859,34.7154 36.6069,34.7154 34.3989,32.5074 L23.8719,21.9804 C21.6649,19.7734 18.0849,19.7734 15.8779,21.9804 C13.6699,24.1884 13.6699,27.7674 15.8779,29.9754 L31.7339,45.8324 C33.9419,48.0394 33.9419,51.6194 31.7339,53.8274 C29.5259,56.0354 25.9469,56.0354 23.7389,53.8274 L21.7399,51.8284 C19.5329,49.6214 15.9529,49.6214 13.7459,51.8284 C11.5379,54.0364 11.5379,57.6154 13.7459,59.8234 L45.6869,91.7654 C46.1459,90.9414 46.7159,90.1634 47.4149,89.4644 L60.4189,76.4604 Z"/>
        <path fill="#FFFFFF" d="M101.6499,71.7889 C97.4419,71.8409 93.4659,71.8889 90.1509,73.6589 C85.1079,76.3509 82.3869,81.8729 79.7569,87.2129 C78.4609,89.8459 77.2359,92.3309 75.7429,94.5219 C70.5219,102.1839 62.8889,106.9689 54.1319,108.1229 L57.8579,111.8499 C61.1509,115.1419 66.5079,115.1419 69.7999,111.8499 L110.6809,70.9689 C107.7999,71.7119 104.6959,71.7519 101.6499,71.7889"/>
        <path fill="#000000" d="M73.3828,63.4964 L72.1378,64.7414 C71.7468,65.1324 71.7468,65.7654 72.1378,66.1554 C72.5288,66.5464 73.1608,66.5464 73.5518,66.1554 L74.7968,64.9104 C75.1878,64.5204 75.1878,63.8874 74.7968,63.4964 C74.4058,63.1054 73.7728,63.1054 73.3828,63.4964"/>
        <path fill="#D3D6ED" d="M136.939,115.4095 L130.881,132.6385 L131.378,133.1365 C132.532,134.2885 134.408,134.2885 135.56,133.1365 L143.022,125.6745 C144.175,124.5215 144.175,122.6455 143.022,121.4925 L136.939,115.4095 Z"/>
        <polygon fill="#D3D6ED" points="129.313 131.071 135.371 113.841 131.283 109.752 125.225 126.982"/>
        <polygon fill="#D3D6ED" points="117.999 119.757 124.058 102.527 119.969 98.439 113.91 115.669"/>
        <polygon fill="#D3D6ED" points="123.657 125.414 129.715 108.185 125.626 104.096 119.568 121.326"/>
        <path fill="#D3D6ED" d="M105.5855,103.161 C104.4325,104.314 104.4325,106.19 105.5855,107.343 L112.3435,114.1 L118.4005,96.87 L117.2295,95.699 C116.0755,94.546 114.1995,94.546 113.0475,95.699 L105.5855,103.161 Z"/>
        <path fill="#000000" d="M123.5083 104.0892L118.5273 118.2582C118.2823 118.9532 117.3973 119.1542 116.8763 118.6332L114.4073 116.1652C114.1043 115.8612 114.0013 115.4112 114.1443 115.0062L119.4423 99.9382C119.6863 99.2432 120.5713 99.0422 121.0923 99.5622L122.8873 101.3572C123.6023 102.0722 123.8443 103.1342 123.5083 104.0892L123.5083 104.0892zM129.1653 109.7462L124.1833 123.9152C123.9393 124.6102 123.0533 124.8112 122.5323 124.2902L120.0653 121.8222C119.7613 121.5192 119.6583 121.0682 119.8013 120.6622L125.0983 105.5942C125.3433 104.9002 126.2283 104.6982 126.7493 105.2192L128.5433 107.0142C129.2593 107.7292 129.5003 108.7912 129.1653 109.7462L129.1653 109.7462zM134.8213 115.4022L129.8403 129.5722C129.5963 130.2662 128.7103 130.4682 128.1903 129.9472L125.7223 127.4792C125.4173 127.1752 125.3153 126.7242 125.4573 126.3192L130.7553 111.2512C130.9993 110.5572 131.8853 110.3552 132.4053 110.8762L134.2003 112.6712C134.9153 113.3862 135.1573 114.4482 134.8213 115.4022L134.8213 115.4022zM143.0223 125.6742L135.5603 133.1362C134.4053 134.2912 132.5333 134.2912 131.3783 133.1362 131.0743 132.8322 130.9723 132.3812 131.1143 131.9762L136.4123 116.9082C136.6563 116.2142 137.5423 116.0122 138.0633 116.5332L143.0223 121.4922C144.1773 122.6472 144.1773 124.5192 143.0223 125.6742L143.0223 125.6742zM117.2293 95.6992L117.2303 95.7002C117.9463 96.4152 118.1873 97.4782 117.8513 98.4322L112.8693 112.6012C112.6253 113.2962 111.7393 113.4972 111.2193 112.9772L105.5853 107.3432C104.4303 106.1882 104.4303 104.3152 105.5853 103.1602L113.0473 95.6992C114.2013 94.5442 116.0733 94.5442 117.2293 95.6992L117.2293 95.6992zM104.1703 101.7462C102.2373 103.6792 102.2383 106.8242 104.1713 108.7572L129.9643 134.5502C131.8973 136.4832 135.0413 136.4832 136.9753 134.5502L144.4373 127.0892C146.3693 125.1552 146.3693 122.0112 144.4373 120.0782L118.6433 94.2852C116.7103 92.3522 113.5663 92.3522 111.6323 94.2842L108.6093 97.3082 107.1953 98.7222 104.1703 101.7462zM53.7886 114.8504L45.7296 106.7914C45.3386 106.4014 45.3386 105.7674 45.7296 105.3774L46.4486 104.6584C46.8396 104.2674 47.4706 104.2644 47.8606 104.6554 49.6146 106.4134 54.1666 110.9694 55.9216 112.7244 56.3126 113.1154 56.3086 113.7444 55.9176 114.1354L55.2026 114.8504C54.8116 115.2414 54.1796 115.2414 53.7886 114.8504L53.7886 114.8504zM57.8586 111.8494L55.5046 109.4954C54.9416 108.9324 55.2316 107.9684 56.0136 107.8154 63.9796 106.2614 70.8996 101.6294 75.7436 94.5214 77.2366 92.3314 78.4606 89.8454 79.7566 87.2124 82.3866 81.8734 85.1076 76.3504 90.1506 73.6584 93.4666 71.8894 97.4416 71.8404 101.6496 71.7884 102.7766 71.7754 103.9126 71.7614 105.0416 71.7114 106.8556 71.6314 107.8096 73.8394 106.5256 75.1234L69.8006 111.8494C66.5026 115.1474 61.1566 115.1474 57.8586 111.8494L57.8586 111.8494zM114.5446 36.5624L115.2646 35.8434C115.6546 35.4524 116.2876 35.4524 116.6786 35.8434L124.7366 43.9014C125.1276 44.2924 125.1276 44.9254 124.7366 45.3164L124.0206 46.0324C123.6306 46.4224 123.0016 46.4264 122.6106 46.0354 120.8556 44.2814 116.3006 39.7284 114.5416 37.9744 114.1506 37.5844 114.1536 36.9534 114.5446 36.5624L114.5446 36.5624zM118.0926 34.4294C116.9206 33.2574 115.0206 33.2574 113.8506 34.4294L113.2726 35.0054C112.6776 35.6014 111.7806 35.7414 111.0126 35.3964 108.0246 34.0584 104.5376 34.1924 101.6506 35.8014 100.8276 36.2604 100.0496 36.8294 99.3506 37.5294L77.1136 59.7654C76.7236 60.1554 76.7236 60.7884 77.1136 61.1794 77.5046 61.5704 78.1376 61.5704 78.5286 61.1794L100.7646 38.9434C104.0616 35.6454 109.4086 35.6454 112.7066 38.9434L121.7356 47.9724C125.0336 51.2694 125.0336 56.6164 121.7356 59.9144L115.3516 66.2984C111.7426 69.6664 106.8286 69.7264 101.6256 69.7894 97.3626 69.8414 92.9546 69.8944 89.2096 71.8934 83.5966 74.8894 80.7326 80.7054 77.9626 86.3294 76.6986 88.8964 75.5036 91.3214 74.0906 93.3954 69.9406 99.4824 64.1166 103.6984 57.4456 105.5044 54.5506 106.2884 51.4546 105.4454 49.3336 103.3254L48.8296 102.8204C45.5316 99.5224 45.5316 94.1764 48.8296 90.8784L61.8326 77.8744C62.2236 77.4844 62.2236 76.8504 61.8326 76.4604 61.4426 76.0704 60.8096 76.0704 60.4186 76.4604L47.4146 89.4644C46.7166 90.1634 46.1456 90.9414 45.6866 91.7654 44.0786 94.6514 43.9436 98.1394 45.2826 101.1254 45.6266 101.8944 45.4876 102.7904 44.8926 103.3864L44.3816 103.8964C43.1436 105.1344 43.1436 107.0344 44.3156 108.2054L52.3736 116.2644C53.5456 117.4364 55.4456 117.4364 56.6166 116.2644L57.1526 115.7284C57.7566 115.1244 58.6676 114.9924 59.4426 115.3504 63.3036 117.1354 68.0366 116.4424 71.2146 113.2634L123.1496 61.3294C126.3286 58.1504 127.0206 53.4174 125.2366 49.5564 124.8786 48.7814 125.0116 47.8704 125.6146 47.2664L126.1506 46.7304C127.3226 45.5584 127.3226 43.6594 126.1506 42.4874L122.5536 38.8894 121.1396 37.4754 118.0926 34.4294z"/>
      </g>
    </g>
    <rect width="200" height="140"/>
  </g>
</svg>
