<svg xmlns="http://www.w3.org/2000/svg" width="200" height="140" viewBox="0 0 200 140" xmlns:xlink="http://www.w3.org/1999/xlink">
  <defs>
    <polygon id="a" points="0 7.51 0 .49 7.02 .49 7.02 7.51 0 7.51"/>
    <polygon id="c" points="8.02 .1 8.02 7.12 .999 7.12 .999 .1 8.02 .1"/>
    <polygon id="e" points="0 115.979 174.02 115.979 174.02 0 0 0"/>
  </defs>
  <g fill="none" fill-rule="evenodd">
    <g transform="translate(13 12)">
      <path fill="#FFFFFF" d="M147.1637 73.9791C149.6447 73.9791 151.6637 75.9981 151.6637 78.4791 151.6637 80.9601 149.6447 82.9791 147.1637 82.9791L145.1637 82.9791 145.1637 84.9791 147.1637 84.9791C150.7477 84.9791 153.6637 82.0631 153.6637 78.4791 153.6637 74.8951 150.7477 71.9791 147.1637 71.9791L145.1637 71.9791 145.1637 73.9791 147.1637 73.9791zM147.1637 91.9791C149.6447 91.9791 151.6637 93.9981 151.6637 96.4791L151.6637 97.4791C151.6637 99.9601 149.6447 101.9791 147.1637 101.9791L145.1637 101.9791 145.1637 103.9791 147.1637 103.9791C150.7477 103.9791 153.6637 101.0631 153.6637 97.4791L153.6637 96.4791C153.6637 92.8951 150.7477 89.9791 147.1637 89.9791L145.1637 89.9791 145.1637 91.9791 147.1637 91.9791zM159.6686 47.9791L158.1636 47.9791 158.1636 49.9791 159.6686 49.9791C164.0796 49.9791 167.6686 53.5681 167.6686 57.9791 167.6686 62.3901 164.0796 65.9791 159.6686 65.9791L145.1636 65.9791 145.1636 67.9791 159.6686 67.9791C165.1826 67.9791 169.6686 63.4931 169.6686 57.9791 169.6686 52.4651 165.1826 47.9791 159.6686 47.9791"/>
      <polygon fill="#D3D6ED" points="51.436 25.979 38.168 3 24.901 25.979 34.164 25.979"/>
      <path fill="#D3D6ED" d="M29.1412,95.9791 L44.1592,95.9791 L44.1592,79.9791 L22.1632,79.9791 L22.1632,88.4991 C25.9562,88.9751 28.9242,92.1121 29.1412,95.9791"/>
      <path fill="#FFFFFF" d="M135.2516 89.9791C136.3546 89.9791 137.2516 89.0821 137.2516 87.9791 137.2516 86.8761 136.3546 85.9791 135.2516 85.9791 134.1486 85.9791 133.2516 86.8761 133.2516 87.9791 133.2516 89.0821 134.1486 89.9791 135.2516 89.9791M124.2516 89.9791C125.3546 89.9791 126.2516 89.0821 126.2516 87.9791 126.2516 86.8761 125.3546 85.9791 124.2516 85.9791 123.1486 85.9791 122.2516 86.8761 122.2516 87.9791 122.2516 89.0821 123.1486 89.9791 124.2516 89.9791M111.2516 87.9791C111.2516 89.0821 112.1486 89.9791 113.2516 89.9791 114.3546 89.9791 115.2516 89.0821 115.2516 87.9791 115.2516 86.8761 114.3546 85.9791 113.2516 85.9791 112.1486 85.9791 111.2516 86.8761 111.2516 87.9791"/>
      <path fill="#FFFFFF" d="M117.2516,87.9791 C117.2516,90.1851 115.4576,91.9791 113.2516,91.9791 C111.0456,91.9791 109.2516,90.1851 109.2516,87.9791 C109.2516,85.7731 111.0456,83.9791 113.2516,83.9791 C115.4576,83.9791 117.2516,85.7731 117.2516,87.9791 L117.2516,87.9791 Z M124.2516,83.9791 C126.4576,83.9791 128.2516,85.7731 128.2516,87.9791 C128.2516,90.1851 126.4576,91.9791 124.2516,91.9791 C122.0456,91.9791 120.2516,90.1851 120.2516,87.9791 C120.2516,85.7731 122.0456,83.9791 124.2516,83.9791 L124.2516,83.9791 Z M135.2516,83.9791 C137.4576,83.9791 139.2516,85.7731 139.2516,87.9791 C139.2516,90.1851 137.4576,91.9791 135.2516,91.9791 C133.0456,91.9791 131.2516,90.1851 131.2516,87.9791 C131.2516,85.7731 133.0456,83.9791 135.2516,83.9791 L135.2516,83.9791 Z M94.1686,88.5991 C94.1686,89.1511 93.7216,89.5991 93.1686,89.5991 C92.6156,89.5991 92.1686,89.1511 92.1686,88.5991 L92.1686,87.5991 C92.1686,87.0461 92.6156,86.5991 93.1686,86.5991 C93.7216,86.5991 94.1686,87.0461 94.1686,87.5991 L94.1686,88.5991 Z M89.1686,88.5991 C89.1686,89.1511 88.7216,89.5991 88.1686,89.5991 C87.6156,89.5991 87.1686,89.1511 87.1686,88.5991 L87.1686,87.5991 C87.1686,87.0461 87.6156,86.5991 88.1686,86.5991 C88.7216,86.5991 89.1686,87.0461 89.1686,87.5991 L89.1686,88.5991 Z M84.1686,88.5991 C84.1686,89.1511 83.7216,89.5991 83.1686,89.5991 C82.6156,89.5991 82.1686,89.1511 82.1686,88.5991 L82.1686,87.5991 C82.1686,87.0461 82.6156,86.5991 83.1686,86.5991 C83.7216,86.5991 84.1686,87.0461 84.1686,87.5991 L84.1686,88.5991 Z M79.1686,88.5991 C79.1686,89.1511 78.7216,89.5991 78.1686,89.5991 C77.6156,89.5991 77.1686,89.1511 77.1686,88.5991 L77.1686,87.5991 C77.1686,87.0461 77.6156,86.5991 78.1686,86.5991 C78.7216,86.5991 79.1686,87.0461 79.1686,87.5991 L79.1686,88.5991 Z M74.1686,88.5991 C74.1686,89.1511 73.7216,89.5991 73.1686,89.5991 C72.6156,89.5991 72.1686,89.1511 72.1686,88.5991 L72.1686,87.5991 C72.1686,87.0461 72.6156,86.5991 73.1686,86.5991 C73.7216,86.5991 74.1686,87.0461 74.1686,87.5991 L74.1686,88.5991 Z M69.1686,88.5991 C69.1686,89.1511 68.7216,89.5991 68.1686,89.5991 C67.6156,89.5991 67.1686,89.1511 67.1686,88.5991 L67.1686,87.5991 C67.1686,87.0461 67.6156,86.5991 68.1686,86.5991 C68.7216,86.5991 69.1686,87.0461 69.1686,87.5991 L69.1686,88.5991 Z M64.1686,88.5991 C64.1686,89.1511 63.7216,89.5991 63.1686,89.5991 C62.6156,89.5991 62.1686,89.1511 62.1686,88.5991 L62.1686,87.5991 C62.1686,87.0461 62.6156,86.5991 63.1686,86.5991 C63.7216,86.5991 64.1686,87.0461 64.1686,87.5991 L64.1686,88.5991 Z M59.1686,88.5991 C59.1686,89.1511 58.7216,89.5991 58.1686,89.5991 C57.6156,89.5991 57.1686,89.1511 57.1686,88.5991 L57.1686,87.5991 C57.1686,87.0461 57.6156,86.5991 58.1686,86.5991 C58.7216,86.5991 59.1686,87.0461 59.1686,87.5991 L59.1686,88.5991 Z M54.1686,88.5991 C54.1686,89.1511 53.7216,89.5991 53.1686,89.5991 C52.6156,89.5991 52.1686,89.1511 52.1686,88.5991 L52.1686,87.5991 C52.1686,87.0461 52.6156,86.5991 53.1686,86.5991 C53.7216,86.5991 54.1686,87.0461 54.1686,87.5991 L54.1686,88.5991 Z M112.1676,79.9791 L111.1676,79.9791 L46.1586,79.9791 L46.1586,95.9791 L111.1676,95.9791 L112.1676,95.9791 L143.1636,95.9791 L143.1636,79.9791 L112.1676,79.9791 Z"/>
      <path fill="#D3D6ED" d="M45.1588,103.9791 C44.6058,103.9791 44.1588,103.5311 44.1588,102.9791 L44.1588,97.9791 L29.0108,97.9791 C28.3488,101.3301 25.5908,103.9291 22.1638,104.3591 L22.1638,113.9791 L45.1588,113.9791 L45.1588,103.9791 Z"/>
      <path fill="#FFFFFF" d="M135.2516 107.9791C136.3546 107.9791 137.2516 107.0821 137.2516 105.9791 137.2516 104.8761 136.3546 103.9791 135.2516 103.9791 134.1486 103.9791 133.2516 104.8761 133.2516 105.9791 133.2516 107.0821 134.1486 107.9791 135.2516 107.9791M124.2516 107.9791C125.3546 107.9791 126.2516 107.0821 126.2516 105.9791 126.2516 104.8761 125.3546 103.9791 124.2516 103.9791 123.1486 103.9791 122.2516 104.8761 122.2516 105.9791 122.2516 107.0821 123.1486 107.9791 124.2516 107.9791M111.2516 105.9791C111.2516 107.0821 112.1486 107.9791 113.2516 107.9791 114.3546 107.9791 115.2516 107.0821 115.2516 105.9791 115.2516 104.8761 114.3546 103.9791 113.2516 103.9791 112.1486 103.9791 111.2516 104.8761 111.2516 105.9791"/>
      <path fill="#FFFFFF" d="M117.2516,105.9791 C117.2516,108.1851 115.4576,109.9791 113.2516,109.9791 C111.0456,109.9791 109.2516,108.1851 109.2516,105.9791 C109.2516,103.7731 111.0456,101.9791 113.2516,101.9791 C115.4576,101.9791 117.2516,103.7731 117.2516,105.9791 L117.2516,105.9791 Z M124.2516,101.9791 C126.4576,101.9791 128.2516,103.7731 128.2516,105.9791 C128.2516,108.1851 126.4576,109.9791 124.2516,109.9791 C122.0456,109.9791 120.2516,108.1851 120.2516,105.9791 C120.2516,103.7731 122.0456,101.9791 124.2516,101.9791 L124.2516,101.9791 Z M135.2516,101.9791 C137.4576,101.9791 139.2516,103.7731 139.2516,105.9791 C139.2516,108.1851 137.4576,109.9791 135.2516,109.9791 C133.0456,109.9791 131.2516,108.1851 131.2516,105.9791 C131.2516,103.7731 133.0456,101.9791 135.2516,101.9791 L135.2516,101.9791 Z M94.1686,106.5991 C94.1686,107.1511 93.7216,107.5991 93.1686,107.5991 C92.6156,107.5991 92.1686,107.1511 92.1686,106.5991 L92.1686,105.5991 C92.1686,105.0461 92.6156,104.5991 93.1686,104.5991 C93.7216,104.5991 94.1686,105.0461 94.1686,105.5991 L94.1686,106.5991 Z M89.1686,106.5991 C89.1686,107.1511 88.7216,107.5991 88.1686,107.5991 C87.6156,107.5991 87.1686,107.1511 87.1686,106.5991 L87.1686,105.5991 C87.1686,105.0461 87.6156,104.5991 88.1686,104.5991 C88.7216,104.5991 89.1686,105.0461 89.1686,105.5991 L89.1686,106.5991 Z M84.1686,106.5991 C84.1686,107.1511 83.7216,107.5991 83.1686,107.5991 C82.6156,107.5991 82.1686,107.1511 82.1686,106.5991 L82.1686,105.5991 C82.1686,105.0461 82.6156,104.5991 83.1686,104.5991 C83.7216,104.5991 84.1686,105.0461 84.1686,105.5991 L84.1686,106.5991 Z M79.1686,106.5991 C79.1686,107.1511 78.7216,107.5991 78.1686,107.5991 C77.6156,107.5991 77.1686,107.1511 77.1686,106.5991 L77.1686,105.5991 C77.1686,105.0461 77.6156,104.5991 78.1686,104.5991 C78.7216,104.5991 79.1686,105.0461 79.1686,105.5991 L79.1686,106.5991 Z M74.1686,106.5991 C74.1686,107.1511 73.7216,107.5991 73.1686,107.5991 C72.6156,107.5991 72.1686,107.1511 72.1686,106.5991 L72.1686,105.5991 C72.1686,105.0461 72.6156,104.5991 73.1686,104.5991 C73.7216,104.5991 74.1686,105.0461 74.1686,105.5991 L74.1686,106.5991 Z M69.1686,106.5991 C69.1686,107.1511 68.7216,107.5991 68.1686,107.5991 C67.6156,107.5991 67.1686,107.1511 67.1686,106.5991 L67.1686,105.5991 C67.1686,105.0461 67.6156,104.5991 68.1686,104.5991 C68.7216,104.5991 69.1686,105.0461 69.1686,105.5991 L69.1686,106.5991 Z M64.1686,106.5991 C64.1686,107.1511 63.7216,107.5991 63.1686,107.5991 C62.6156,107.5991 62.1686,107.1511 62.1686,106.5991 L62.1686,105.5991 C62.1686,105.0461 62.6156,104.5991 63.1686,104.5991 C63.7216,104.5991 64.1686,105.0461 64.1686,105.5991 L64.1686,106.5991 Z M59.1686,106.5991 C59.1686,107.1511 58.7216,107.5991 58.1686,107.5991 C57.6156,107.5991 57.1686,107.1511 57.1686,106.5991 L57.1686,105.5991 C57.1686,105.0461 57.6156,104.5991 58.1686,104.5991 C58.7216,104.5991 59.1686,105.0461 59.1686,105.5991 L59.1686,106.5991 Z M54.1686,106.5991 C54.1686,107.1511 53.7216,107.5991 53.1686,107.5991 C52.6156,107.5991 52.1686,107.1511 52.1686,106.5991 L52.1686,105.5991 C52.1686,105.0461 52.6156,104.5991 53.1686,104.5991 C53.7216,104.5991 54.1686,105.0461 54.1686,105.5991 L54.1686,106.5991 Z M112.1676,97.9791 L111.1676,97.9791 L46.1586,97.9791 L46.1586,102.9791 C46.1586,103.5311 45.7116,103.9791 45.1586,103.9791 L45.1586,113.9791 L111.1676,113.9791 L143.1636,113.9791 L143.1636,97.9791 L112.1676,97.9791 Z"/>
      <polygon fill="#D3D6ED" points="22.164 77.979 44.159 77.979 44.159 61.979 34.164 61.979 22.164 61.979"/>
      <path fill="#FFFFFF" d="M124.2516 67.9791C123.1486 67.9791 122.2516 68.8761 122.2516 69.9791 122.2516 71.0821 123.1486 71.9791 124.2516 71.9791 125.3546 71.9791 126.2516 71.0821 126.2516 69.9791 126.2516 68.8761 125.3546 67.9791 124.2516 67.9791M137.2516 69.9791C137.2516 68.8761 136.3546 67.9791 135.2516 67.9791 134.1486 67.9791 133.2516 68.8761 133.2516 69.9791 133.2516 71.0821 134.1486 71.9791 135.2516 71.9791 136.3546 71.9791 137.2516 71.0821 137.2516 69.9791M113.2516 67.9791C112.1486 67.9791 111.2516 68.8761 111.2516 69.9791 111.2516 71.0821 112.1486 71.9791 113.2516 71.9791 114.3546 71.9791 115.2516 71.0821 115.2516 69.9791 115.2516 68.8761 114.3546 67.9791 113.2516 67.9791"/>
      <path fill="#FFFFFF" d="M131.2516,69.9791 C131.2516,67.7731 133.0456,65.9791 135.2516,65.9791 C137.4576,65.9791 139.2516,67.7731 139.2516,69.9791 C139.2516,72.1851 137.4576,73.9791 135.2516,73.9791 C133.0456,73.9791 131.2516,72.1851 131.2516,69.9791 L131.2516,69.9791 Z M124.2516,73.9791 C122.0456,73.9791 120.2516,72.1851 120.2516,69.9791 C120.2516,67.7731 122.0456,65.9791 124.2516,65.9791 C126.4576,65.9791 128.2516,67.7731 128.2516,69.9791 C128.2516,72.1851 126.4576,73.9791 124.2516,73.9791 L124.2516,73.9791 Z M113.2516,73.9791 C111.0456,73.9791 109.2516,72.1851 109.2516,69.9791 C109.2516,67.7731 111.0456,65.9791 113.2516,65.9791 C115.4576,65.9791 117.2516,67.7731 117.2516,69.9791 C117.2516,72.1851 115.4576,73.9791 113.2516,73.9791 L113.2516,73.9791 Z M94.1686,70.5991 C94.1686,71.1511 93.7216,71.5991 93.1686,71.5991 C92.6156,71.5991 92.1686,71.1511 92.1686,70.5991 L92.1686,69.5991 C92.1686,69.0461 92.6156,68.5991 93.1686,68.5991 C93.7216,68.5991 94.1686,69.0461 94.1686,69.5991 L94.1686,70.5991 Z M89.1686,70.5991 C89.1686,71.1511 88.7216,71.5991 88.1686,71.5991 C87.6156,71.5991 87.1686,71.1511 87.1686,70.5991 L87.1686,69.5991 C87.1686,69.0461 87.6156,68.5991 88.1686,68.5991 C88.7216,68.5991 89.1686,69.0461 89.1686,69.5991 L89.1686,70.5991 Z M84.1686,70.5991 C84.1686,71.1511 83.7216,71.5991 83.1686,71.5991 C82.6156,71.5991 82.1686,71.1511 82.1686,70.5991 L82.1686,69.5991 C82.1686,69.0461 82.6156,68.5991 83.1686,68.5991 C83.7216,68.5991 84.1686,69.0461 84.1686,69.5991 L84.1686,70.5991 Z M79.1686,70.5991 C79.1686,71.1511 78.7216,71.5991 78.1686,71.5991 C77.6156,71.5991 77.1686,71.1511 77.1686,70.5991 L77.1686,69.5991 C77.1686,69.0461 77.6156,68.5991 78.1686,68.5991 C78.7216,68.5991 79.1686,69.0461 79.1686,69.5991 L79.1686,70.5991 Z M74.1686,70.5991 C74.1686,71.1511 73.7216,71.5991 73.1686,71.5991 C72.6156,71.5991 72.1686,71.1511 72.1686,70.5991 L72.1686,69.5991 C72.1686,69.0461 72.6156,68.5991 73.1686,68.5991 C73.7216,68.5991 74.1686,69.0461 74.1686,69.5991 L74.1686,70.5991 Z M69.1686,70.5991 C69.1686,71.1511 68.7216,71.5991 68.1686,71.5991 C67.6156,71.5991 67.1686,71.1511 67.1686,70.5991 L67.1686,69.5991 C67.1686,69.0461 67.6156,68.5991 68.1686,68.5991 C68.7216,68.5991 69.1686,69.0461 69.1686,69.5991 L69.1686,70.5991 Z M64.1686,70.5991 C64.1686,71.1511 63.7216,71.5991 63.1686,71.5991 C62.6156,71.5991 62.1686,71.1511 62.1686,70.5991 L62.1686,69.5991 C62.1686,69.0461 62.6156,68.5991 63.1686,68.5991 C63.7216,68.5991 64.1686,69.0461 64.1686,69.5991 L64.1686,70.5991 Z M59.1686,70.5991 C59.1686,71.1511 58.7216,71.5991 58.1686,71.5991 C57.6156,71.5991 57.1686,71.1511 57.1686,70.5991 L57.1686,69.5991 C57.1686,69.0461 57.6156,68.5991 58.1686,68.5991 C58.7216,68.5991 59.1686,69.0461 59.1686,69.5991 L59.1686,70.5991 Z M54.1686,70.5991 C54.1686,71.1511 53.7216,71.5991 53.1686,71.5991 C52.6156,71.5991 52.1686,71.1511 52.1686,70.5991 L52.1686,69.5991 C52.1686,69.0461 52.6156,68.5991 53.1686,68.5991 C53.7216,68.5991 54.1686,69.0461 54.1686,69.5991 L54.1686,70.5991 Z M143.1636,61.9791 L125.1676,61.9791 L111.1676,61.9791 L58.1586,61.9791 L46.1586,61.9791 L46.1586,77.9791 L111.1676,77.9791 L112.1676,77.9791 L143.1636,77.9791 L143.1636,61.9791 Z"/>
      <path fill="#7B80D6" d="M57.1588,59.9791 L57.1588,47.9511 C57.1588,47.3991 57.6058,46.9511 58.1588,46.9511 L58.1588,41.2821 C57.6058,41.2821 57.1588,40.8341 57.1588,40.2821 L57.1588,38.9271 C57.1588,38.3751 57.6058,37.9271 58.1588,37.9271 L58.1588,35.7911 C57.6058,35.7911 57.1588,35.3431 57.1588,34.7911 L57.1588,27.9791 L53.1688,27.9791 L35.1638,27.9791 L35.1638,59.9791 L45.1588,59.9791 L57.1588,59.9791 Z"/>
      <path fill="#ACB0FF" d="M64.5768,36.5768 C64.5768,36.0248 65.0238,35.5768 65.5768,35.5768 L69.5768,35.5768 C70.1298,35.5768 70.5768,36.0248 70.5768,36.5768 L70.5768,50.5768 C70.5768,51.1288 70.1298,51.5768 69.5768,51.5768 L65.5768,51.5768 C65.0238,51.5768 64.5768,51.1288 64.5768,50.5768 L64.5768,36.5768 Z M73.5768,36.5768 C73.5768,36.0248 74.0238,35.5768 74.5768,35.5768 L78.5768,35.5768 C79.1298,35.5768 79.5768,36.0248 79.5768,36.5768 L79.5768,50.5768 C79.5768,51.1288 79.1298,51.5768 78.5768,51.5768 L74.5768,51.5768 C74.0238,51.5768 73.5768,51.1288 73.5768,50.5768 L73.5768,36.5768 Z M82.5768,36.5768 C82.5768,36.0248 83.0238,35.5768 83.5768,35.5768 L87.5768,35.5768 C88.1298,35.5768 88.5768,36.0248 88.5768,36.5768 L88.5768,50.5768 C88.5768,51.1288 88.1298,51.5768 87.5768,51.5768 L83.5768,51.5768 C83.0238,51.5768 82.5768,51.1288 82.5768,50.5768 L82.5768,36.5768 Z M91.5768,36.5768 C91.5768,36.0248 92.0238,35.5768 92.5768,35.5768 L96.5768,35.5768 C97.1298,35.5768 97.5768,36.0248 97.5768,36.5768 L97.5768,50.5768 C97.5768,51.1288 97.1298,51.5768 96.5768,51.5768 L92.5768,51.5768 C92.0238,51.5768 91.5768,51.1288 91.5768,50.5768 L91.5768,36.5768 Z M110.6638,35.9788 C114.5228,35.9788 117.6638,39.1188 117.6638,42.9788 C117.6638,46.8388 114.5228,49.9788 110.6638,49.9788 C106.8048,49.9788 103.6638,46.8388 103.6638,42.9788 C103.6638,39.1188 106.8048,35.9788 110.6638,35.9788 L110.6638,35.9788 Z M127.6638,35.9788 C131.5228,35.9788 134.6638,39.1188 134.6638,42.9788 C134.6638,46.8388 131.5228,49.9788 127.6638,49.9788 C123.8048,49.9788 120.6638,46.8388 120.6638,42.9788 C120.6638,39.1188 123.8048,35.9788 127.6638,35.9788 L127.6638,35.9788 Z M144.6638,35.9788 C148.5228,35.9788 151.6638,39.1188 151.6638,42.9788 C151.6638,46.8388 148.5228,49.9788 144.6638,49.9788 C140.8048,49.9788 137.6638,46.8388 137.6638,42.9788 C137.6638,39.1188 140.8048,35.9788 144.6638,35.9788 L144.6638,35.9788 Z M59.1588,38.9278 L59.1588,40.2828 C59.1588,40.8348 58.7118,41.2818 58.1588,41.2828 L58.1588,46.9518 C58.7118,46.9518 59.1588,47.3988 59.1588,47.9518 L59.1588,59.9788 L112.1678,59.9788 L124.1678,59.9788 L144.1638,59.9788 L156.1638,59.9788 L156.1638,27.9788 L124.1678,27.9788 L59.1588,27.9788 L59.1588,34.7908 C59.1588,35.3428 58.7118,35.7898 58.1588,35.7908 L58.1588,37.9278 C58.7118,37.9278 59.1588,38.3748 59.1588,38.9278 L59.1588,38.9278 Z"/>
      <path fill="#7B80D6" d="M139.6637,42.9791 C139.6637,45.7361 141.9067,47.9791 144.6637,47.9791 C147.4207,47.9791 149.6637,45.7361 149.6637,42.9791 C149.6637,40.2221 147.4207,37.9791 144.6637,37.9791 C141.9067,37.9791 139.6637,40.2221 139.6637,42.9791"/>
      <path fill="#FFFFFF" d="M122.6637,42.9791 C122.6637,45.7361 124.9067,47.9791 127.6637,47.9791 C130.4207,47.9791 132.6637,45.7361 132.6637,42.9791 C132.6637,40.2221 130.4207,37.9791 127.6637,37.9791 C124.9067,37.9791 122.6637,40.2221 122.6637,42.9791"/>
      <path fill="#ACB0FF" d="M105.6637 42.9791C105.6637 45.7361 107.9067 47.9791 110.6637 47.9791 113.4207 47.9791 115.6637 45.7361 115.6637 42.9791 115.6637 40.2221 113.4207 37.9791 110.6637 37.9791 107.9067 37.9791 105.6637 40.2221 105.6637 42.9791M15.1637 96.4293C15.1637 99.7383 17.8547 102.4293 21.1637 102.4293 24.4727 102.4293 27.1637 99.7383 27.1637 96.4293 27.1637 93.1203 24.4727 90.4293 21.1637 90.4293 17.8547 90.4293 15.1637 93.1203 15.1637 96.4293"/>
      <g transform="translate(0 66.979)">
        <mask id="b" fill="white">
          <use xlink:href="#a"/>
        </mask>
        <path fill="#D3D6ED" d="M7.0201,3.9996 C7.0201,3.4476 6.5721,2.9996 6.0201,2.9996 L6.0191,2.9996 C5.1861,2.9996 4.5091,2.3236 4.5091,1.4896 C4.5091,0.9376 4.0621,0.4896 3.5091,0.4896 C2.9581,0.4896 2.5091,0.9376 2.5091,1.4896 C2.5091,2.3236 1.8331,2.9996 0.9991,2.9996 C0.4481,2.9996 -0.0009,3.4476 -0.0009,3.9996 C-0.0009,4.5516 0.4481,4.9996 0.9991,4.9996 C1.8331,4.9996 2.5091,5.6756 2.5091,6.5096 L2.5091,6.5096 C2.5091,7.0626 2.9581,7.5096 3.5091,7.5096 C4.0621,7.5096 4.5091,7.0626 4.5091,6.5096 L4.5091,6.5096 C4.5091,5.6756 5.1861,4.9996 6.0191,4.9996 L6.0201,4.9996 C6.5721,4.9996 7.0201,4.5516 7.0201,3.9996" mask="url(#b)"/>
      </g>
      <g transform="translate(166 72.979)">
        <mask id="d" fill="white">
          <use xlink:href="#c"/>
        </mask>
        <path fill="#ACB0FF" d="M7.0201,2.6095 L7.0191,2.6095 C6.1861,2.6095 5.5091,1.9335 5.5091,1.0995 C5.5091,0.5475 5.0621,0.0995 4.5091,0.0995 C3.9571,0.0995 3.5091,0.5475 3.5091,1.0995 C3.5091,1.9335 2.8331,2.6095 1.9991,2.6095 C1.4481,2.6095 0.9991,3.0575 0.9991,3.6095 C0.9991,4.1615 1.4481,4.6095 1.9991,4.6095 C2.8331,4.6095 3.5091,5.2855 3.5091,6.1195 L3.5091,6.1195 C3.5091,6.6715 3.9571,7.1195 4.5091,7.1195 C5.0621,7.1195 5.5091,6.6715 5.5091,6.1195 L5.5091,6.1195 C5.5091,5.2855 6.1861,4.6095 7.0191,4.6095 L7.0201,4.6095 C7.5721,4.6095 8.0201,4.1615 8.0201,3.6095 C8.0201,3.0575 7.5721,2.6095 7.0201,2.6095" mask="url(#d)"/>
      </g>
      <path fill="#FFFFFF" d="M65.985 9.5358C66.241 9.5358 66.498 9.4378 66.692 9.2428L67.876 8.0588C68.266 7.6688 68.266 7.0358 67.876 6.6448 67.485 6.2548 66.851 6.2548 66.462 6.6448L65.278 7.8288C64.887 8.2198 64.887 8.8528 65.278 9.2428 65.473 9.4378 65.729 9.5358 65.985 9.5358M60.069 15.4518C60.325 15.4518 60.581 15.3538 60.776 15.1588L61.96 13.9758C62.35 13.5848 62.35 12.9518 61.96 12.5618 61.569 12.1708 60.936 12.1708 60.546 12.5618L59.362 13.7448C58.971 14.1358 58.971 14.7678 59.362 15.1588 59.557 15.3538 59.813 15.4518 60.069 15.4518M66.4615 15.1588C66.6565 15.3538 66.9125 15.4518 67.1685 15.4518 67.4245 15.4518 67.6805 15.3538 67.8755 15.1588 68.2665 14.7678 68.2665 14.1358 67.8755 13.7448L66.6915 12.5618C66.3015 12.1708 65.6685 12.1708 65.2775 12.5618 64.8875 12.9518 64.8875 13.5848 65.2775 13.9758L66.4615 15.1588zM60.5455 9.2428C60.7405 9.4378 60.9965 9.5358 61.2525 9.5358 61.5085 9.5358 61.7645 9.4378 61.9595 9.2428 62.3505 8.8528 62.3505 8.2198 61.9595 7.8288L60.7755 6.6448C60.3855 6.2548 59.7525 6.2548 59.3615 6.6448 58.9715 7.0348 58.9715 7.6688 59.3615 8.0588L60.5455 9.2428z"/>
      <mask id="f" fill="white">
        <use xlink:href="#e"/>
      </mask>
      <polygon fill="#7B80D6" points="66.577 49.577 68.577 49.577 68.577 37.577 66.577 37.577" mask="url(#f)"/>
      <polygon fill="#7B80D6" points="75.577 49.577 77.577 49.577 77.577 37.577 75.577 37.577" mask="url(#f)"/>
      <polygon fill="#7B80D6" points="84.577 49.577 86.577 49.577 86.577 37.577 84.577 37.577" mask="url(#f)"/>
      <polygon fill="#7B80D6" points="93.577 49.577 95.577 49.577 95.577 37.577 93.577 37.577" mask="url(#f)"/>
      <path fill="#000000" d="M124.1676,59.9791 L112.1676,59.9791 L62.1586,59.9791 C60.5016,59.9791 59.1586,58.6361 59.1586,56.9791 L59.1586,47.9511 C59.1586,47.3991 58.7116,46.9511 58.1586,46.9511 C57.6056,46.9511 57.1586,47.3991 57.1586,47.9511 L57.1586,56.9791 C57.1586,58.6361 55.8156,59.9791 54.1586,59.9791 L45.1586,59.9791 L38.1636,59.9791 C36.5066,59.9791 35.1636,58.6361 35.1636,56.9791 L35.1636,30.9791 C35.1636,29.3221 36.5066,27.9791 38.1636,27.9791 L53.1686,27.9791 L54.1586,27.9791 C55.8156,27.9791 57.1586,29.3221 57.1586,30.9791 L57.1586,34.7911 C57.1586,35.3431 57.6056,35.7911 58.1586,35.7911 C58.7116,35.7901 59.1586,35.3431 59.1586,34.7911 L59.1586,30.9791 C59.1586,29.3221 60.5016,27.9791 62.1586,27.9791 L124.1676,27.9791 L153.1636,27.9791 C154.8206,27.9791 156.1636,29.3221 156.1636,30.9791 L156.1636,56.9791 C156.1636,58.6361 154.8206,59.9791 153.1636,59.9791 L144.1636,59.9791 L124.1676,59.9791 Z M143.1636,76.9791 C143.1636,77.5311 142.7166,77.9791 142.1636,77.9791 L112.1676,77.9791 L111.1676,77.9791 L47.1586,77.9791 C46.6056,77.9791 46.1586,77.5311 46.1586,76.9791 L46.1586,62.9791 C46.1586,62.4271 46.6056,61.9791 47.1586,61.9791 L58.1586,61.9791 L111.1676,61.9791 L125.1676,61.9791 L142.1636,61.9791 C142.7166,61.9791 143.1636,62.4271 143.1636,62.9791 L143.1636,76.9791 Z M143.1636,94.9791 C143.1636,95.5311 142.7166,95.9791 142.1636,95.9791 L112.1676,95.9791 L111.1676,95.9791 L47.1586,95.9791 C46.6056,95.9791 46.1586,95.5311 46.1586,94.9791 L46.1586,80.9791 C46.1586,80.4271 46.6056,79.9791 47.1586,79.9791 L111.1676,79.9791 L112.1676,79.9791 L142.1636,79.9791 C142.7166,79.9791 143.1636,80.4271 143.1636,80.9791 L143.1636,94.9791 Z M143.1636,112.9791 C143.1636,113.5311 142.7166,113.9791 142.1636,113.9791 L111.1676,113.9791 L45.1586,113.9791 L23.1636,113.9791 C22.6106,113.9791 22.1636,113.5311 22.1636,112.9791 L22.1636,104.3591 C25.5906,103.9291 28.3496,101.3301 29.0106,97.9791 L43.1586,97.9791 C43.7116,97.9791 44.1586,98.4271 44.1586,98.9791 L44.1586,102.9791 C44.1586,103.5311 44.6056,103.9791 45.1586,103.9791 C45.7116,103.9791 46.1586,103.5311 46.1586,102.9791 L46.1586,98.9791 C46.1586,98.4271 46.6056,97.9791 47.1586,97.9791 L111.1676,97.9791 L112.1676,97.9791 L142.1636,97.9791 C142.7166,97.9791 143.1636,98.4271 143.1636,98.9791 L143.1636,112.9791 Z M15.1636,96.4291 C15.1636,93.1211 17.8546,90.4291 21.1636,90.4291 C24.4726,90.4291 27.1636,93.1211 27.1636,96.4291 C27.1636,99.7381 24.4726,102.4291 21.1636,102.4291 C17.8546,102.4291 15.1636,99.7381 15.1636,96.4291 L15.1636,96.4291 Z M23.1636,79.9791 L43.1586,79.9791 C43.7116,79.9791 44.1586,80.4271 44.1586,80.9791 L44.1586,90.9791 C44.1586,93.7401 41.9206,95.9791 39.1586,95.9791 L29.1416,95.9791 C28.9246,92.1121 25.9566,88.9751 22.1636,88.4991 L22.1636,80.9791 C22.1636,80.4271 22.6106,79.9791 23.1636,79.9791 L23.1636,79.9791 Z M22.1636,62.9791 C22.1636,62.4271 22.6106,61.9791 23.1636,61.9791 L34.1636,61.9791 L43.1586,61.9791 C43.7116,61.9791 44.1586,62.4271 44.1586,62.9791 L44.1586,72.9791 C44.1586,75.7401 41.9206,77.9791 39.1586,77.9791 L23.1636,77.9791 C22.6106,77.9791 22.1636,77.5311 22.1636,76.9791 L22.1636,62.9791 Z M26.6336,22.9791 L37.3026,4.5001 C37.6876,3.8331 38.6496,3.8331 39.0346,4.5001 L49.7036,22.9791 C50.4746,24.3121 49.5116,25.9791 47.9726,25.9791 L34.1636,25.9791 L28.3646,25.9791 C26.8256,25.9791 25.8626,24.3121 26.6336,22.9791 L26.6336,22.9791 Z M157.2556,113.9791 L147.1636,113.9791 C146.0596,113.9791 145.1636,113.0831 145.1636,111.9791 L145.1636,103.9791 L145.1636,101.9791 L145.1636,96.9791 L145.1636,91.9791 L145.1636,89.9791 L145.1636,84.9791 L145.1636,82.9791 L145.1636,78.9791 L145.1636,73.9791 L145.1636,71.9791 L145.1636,67.9791 L145.1636,65.9791 L145.1636,64.9791 C145.1636,63.3221 146.5066,61.9791 148.1636,61.9791 L157.1636,61.9791 C157.7166,61.9791 158.1636,61.5311 158.1636,60.9791 L158.1636,49.9791 L158.1636,47.9791 L158.1636,26.9791 C158.1636,26.4271 157.7166,25.9791 157.1636,25.9791 L125.1676,25.9791 L58.1586,25.9791 L57.2096,25.9791 C55.0666,25.9791 53.0856,24.8351 52.0146,22.9791 L39.0346,0.5001 C38.6496,-0.1669 37.6876,-0.1669 37.3026,0.5001 L22.3026,26.4791 C22.1236,26.7891 22.1236,27.1691 22.3026,27.4791 C22.4806,27.7891 22.8116,27.9791 23.1686,27.9791 L30.1636,27.9791 C31.8206,27.9791 33.1636,29.3221 33.1636,30.9791 L33.1636,56.9791 C33.1636,58.6361 31.8206,59.9791 30.1636,59.9791 L21.1636,59.9791 C20.6106,59.9791 20.1636,60.4271 20.1636,60.9791 L20.1636,78.9791 L20.1636,88.4991 C16.2236,88.9931 13.1636,92.3571 13.1636,96.4291 C13.1636,100.5011 16.2236,103.8651 20.1636,104.3591 L20.1636,111.9791 C20.1636,113.0831 19.2686,113.9791 18.1636,113.9791 L7.2556,113.9791 C6.7026,113.9791 6.2556,114.4271 6.2556,114.9791 C6.2556,115.5311 6.7026,115.9791 7.2556,115.9791 L21.1636,115.9791 L45.1586,115.9791 L112.1676,115.9791 L144.1636,115.9791 L157.2556,115.9791 C157.8086,115.9791 158.2556,115.5311 158.2556,114.9791 C158.2556,114.4271 157.8086,113.9791 157.2556,113.9791 L157.2556,113.9791 Z" mask="url(#f)"/>
      <path fill="#000000" d="M58.1588 37.9274L58.1588 37.9274C57.6058 37.9274 57.1588 38.3754 57.1588 38.9274L57.1588 40.2824C57.1588 40.8344 57.6058 41.2824 58.1588 41.2824 58.7118 41.2814 59.1588 40.8344 59.1588 40.2824L59.1588 38.9274C59.1588 38.3754 58.7118 37.9274 58.1588 37.9274M144.6637 47.9791C141.9067 47.9791 139.6637 45.7361 139.6637 42.9791 139.6637 40.2221 141.9067 37.9791 144.6637 37.9791 147.4207 37.9791 149.6637 40.2221 149.6637 42.9791 149.6637 45.7361 147.4207 47.9791 144.6637 47.9791M144.6637 35.9791C140.8047 35.9791 137.6637 39.1191 137.6637 42.9791 137.6637 46.8391 140.8047 49.9791 144.6637 49.9791 148.5227 49.9791 151.6637 46.8391 151.6637 42.9791 151.6637 39.1191 148.5227 35.9791 144.6637 35.9791M127.6637 47.9791C124.9067 47.9791 122.6637 45.7361 122.6637 42.9791 122.6637 40.2221 124.9067 37.9791 127.6637 37.9791 130.4207 37.9791 132.6637 40.2221 132.6637 42.9791 132.6637 45.7361 130.4207 47.9791 127.6637 47.9791M127.6637 35.9791C123.8047 35.9791 120.6637 39.1191 120.6637 42.9791 120.6637 46.8391 123.8047 49.9791 127.6637 49.9791 131.5227 49.9791 134.6637 46.8391 134.6637 42.9791 134.6637 39.1191 131.5227 35.9791 127.6637 35.9791M110.6637 47.9791C107.9067 47.9791 105.6637 45.7361 105.6637 42.9791 105.6637 40.2221 107.9067 37.9791 110.6637 37.9791 113.4207 37.9791 115.6637 40.2221 115.6637 42.9791 115.6637 45.7361 113.4207 47.9791 110.6637 47.9791M110.6637 35.9791C106.8047 35.9791 103.6637 39.1191 103.6637 42.9791 103.6637 46.8391 106.8047 49.9791 110.6637 49.9791 114.5227 49.9791 117.6637 46.8391 117.6637 42.9791 117.6637 39.1191 114.5227 35.9791 110.6637 35.9791M53.1686 68.5988C52.6156 68.5988 52.1686 69.0468 52.1686 69.5988L52.1686 70.5988C52.1686 71.1508 52.6156 71.5988 53.1686 71.5988 53.7216 71.5988 54.1686 71.1508 54.1686 70.5988L54.1686 69.5988C54.1686 69.0468 53.7216 68.5988 53.1686 68.5988M63.1686 68.5988C62.6156 68.5988 62.1686 69.0468 62.1686 69.5988L62.1686 70.5988C62.1686 71.1508 62.6156 71.5988 63.1686 71.5988 63.7216 71.5988 64.1686 71.1508 64.1686 70.5988L64.1686 69.5988C64.1686 69.0468 63.7216 68.5988 63.1686 68.5988M73.1686 68.5988C72.6156 68.5988 72.1686 69.0468 72.1686 69.5988L72.1686 70.5988C72.1686 71.1508 72.6156 71.5988 73.1686 71.5988 73.7216 71.5988 74.1686 71.1508 74.1686 70.5988L74.1686 69.5988C74.1686 69.0468 73.7216 68.5988 73.1686 68.5988M83.1686 68.5988C82.6156 68.5988 82.1686 69.0468 82.1686 69.5988L82.1686 70.5988C82.1686 71.1508 82.6156 71.5988 83.1686 71.5988 83.7216 71.5988 84.1686 71.1508 84.1686 70.5988L84.1686 69.5988C84.1686 69.0468 83.7216 68.5988 83.1686 68.5988M93.1686 68.5988C92.6156 68.5988 92.1686 69.0468 92.1686 69.5988L92.1686 70.5988C92.1686 71.1508 92.6156 71.5988 93.1686 71.5988 93.7216 71.5988 94.1686 71.1508 94.1686 70.5988L94.1686 69.5988C94.1686 69.0468 93.7216 68.5988 93.1686 68.5988M58.1686 68.5988C57.6156 68.5988 57.1686 69.0468 57.1686 69.5988L57.1686 70.5988C57.1686 71.1508 57.6156 71.5988 58.1686 71.5988 58.7216 71.5988 59.1686 71.1508 59.1686 70.5988L59.1686 69.5988C59.1686 69.0468 58.7216 68.5988 58.1686 68.5988M68.1686 68.5988C67.6156 68.5988 67.1686 69.0468 67.1686 69.5988L67.1686 70.5988C67.1686 71.1508 67.6156 71.5988 68.1686 71.5988 68.7216 71.5988 69.1686 71.1508 69.1686 70.5988L69.1686 69.5988C69.1686 69.0468 68.7216 68.5988 68.1686 68.5988M78.1686 68.5988C77.6156 68.5988 77.1686 69.0468 77.1686 69.5988L77.1686 70.5988C77.1686 71.1508 77.6156 71.5988 78.1686 71.5988 78.7216 71.5988 79.1686 71.1508 79.1686 70.5988L79.1686 69.5988C79.1686 69.0468 78.7216 68.5988 78.1686 68.5988M88.1686 68.5988C87.6156 68.5988 87.1686 69.0468 87.1686 69.5988L87.1686 70.5988C87.1686 71.1508 87.6156 71.5988 88.1686 71.5988 88.7216 71.5988 89.1686 71.1508 89.1686 70.5988L89.1686 69.5988C89.1686 69.0468 88.7216 68.5988 88.1686 68.5988M135.2516 67.9791C136.3546 67.9791 137.2516 68.8761 137.2516 69.9791 137.2516 71.0821 136.3546 71.9791 135.2516 71.9791 134.1486 71.9791 133.2516 71.0821 133.2516 69.9791 133.2516 68.8761 134.1486 67.9791 135.2516 67.9791M135.2516 73.9791C137.4576 73.9791 139.2516 72.1851 139.2516 69.9791 139.2516 67.7731 137.4576 65.9791 135.2516 65.9791 133.0456 65.9791 131.2516 67.7731 131.2516 69.9791 131.2516 72.1851 133.0456 73.9791 135.2516 73.9791M126.2516 69.9791C126.2516 71.0821 125.3546 71.9791 124.2516 71.9791 123.1486 71.9791 122.2516 71.0821 122.2516 69.9791 122.2516 68.8761 123.1486 67.9791 124.2516 67.9791 125.3546 67.9791 126.2516 68.8761 126.2516 69.9791M120.2516 69.9791C120.2516 72.1851 122.0456 73.9791 124.2516 73.9791 126.4576 73.9791 128.2516 72.1851 128.2516 69.9791 128.2516 67.7731 126.4576 65.9791 124.2516 65.9791 122.0456 65.9791 120.2516 67.7731 120.2516 69.9791M113.2516 71.9791C112.1486 71.9791 111.2516 71.0821 111.2516 69.9791 111.2516 68.8761 112.1486 67.9791 113.2516 67.9791 114.3546 67.9791 115.2516 68.8761 115.2516 69.9791 115.2516 71.0821 114.3546 71.9791 113.2516 71.9791M113.2516 65.9791C111.0456 65.9791 109.2516 67.7731 109.2516 69.9791 109.2516 72.1851 111.0456 73.9791 113.2516 73.9791 115.4576 73.9791 117.2516 72.1851 117.2516 69.9791 117.2516 67.7731 115.4576 65.9791 113.2516 65.9791M53.1686 86.5988C52.6156 86.5988 52.1686 87.0468 52.1686 87.5988L52.1686 88.5988C52.1686 89.1508 52.6156 89.5988 53.1686 89.5988 53.7216 89.5988 54.1686 89.1508 54.1686 88.5988L54.1686 87.5988C54.1686 87.0468 53.7216 86.5988 53.1686 86.5988M63.1686 86.5988C62.6156 86.5988 62.1686 87.0468 62.1686 87.5988L62.1686 88.5988C62.1686 89.1508 62.6156 89.5988 63.1686 89.5988 63.7216 89.5988 64.1686 89.1508 64.1686 88.5988L64.1686 87.5988C64.1686 87.0468 63.7216 86.5988 63.1686 86.5988M73.1686 86.5988C72.6156 86.5988 72.1686 87.0468 72.1686 87.5988L72.1686 88.5988C72.1686 89.1508 72.6156 89.5988 73.1686 89.5988 73.7216 89.5988 74.1686 89.1508 74.1686 88.5988L74.1686 87.5988C74.1686 87.0468 73.7216 86.5988 73.1686 86.5988M83.1686 86.5988C82.6156 86.5988 82.1686 87.0468 82.1686 87.5988L82.1686 88.5988C82.1686 89.1508 82.6156 89.5988 83.1686 89.5988 83.7216 89.5988 84.1686 89.1508 84.1686 88.5988L84.1686 87.5988C84.1686 87.0468 83.7216 86.5988 83.1686 86.5988M93.1686 86.5988C92.6156 86.5988 92.1686 87.0468 92.1686 87.5988L92.1686 88.5988C92.1686 89.1508 92.6156 89.5988 93.1686 89.5988 93.7216 89.5988 94.1686 89.1508 94.1686 88.5988L94.1686 87.5988C94.1686 87.0468 93.7216 86.5988 93.1686 86.5988M58.1686 86.5988C57.6156 86.5988 57.1686 87.0468 57.1686 87.5988L57.1686 88.5988C57.1686 89.1508 57.6156 89.5988 58.1686 89.5988 58.7216 89.5988 59.1686 89.1508 59.1686 88.5988L59.1686 87.5988C59.1686 87.0468 58.7216 86.5988 58.1686 86.5988M68.1686 86.5988C67.6156 86.5988 67.1686 87.0468 67.1686 87.5988L67.1686 88.5988C67.1686 89.1508 67.6156 89.5988 68.1686 89.5988 68.7216 89.5988 69.1686 89.1508 69.1686 88.5988L69.1686 87.5988C69.1686 87.0468 68.7216 86.5988 68.1686 86.5988M78.1686 86.5988C77.6156 86.5988 77.1686 87.0468 77.1686 87.5988L77.1686 88.5988C77.1686 89.1508 77.6156 89.5988 78.1686 89.5988 78.7216 89.5988 79.1686 89.1508 79.1686 88.5988L79.1686 87.5988C79.1686 87.0468 78.7216 86.5988 78.1686 86.5988M88.1686 86.5988C87.6156 86.5988 87.1686 87.0468 87.1686 87.5988L87.1686 88.5988C87.1686 89.1508 87.6156 89.5988 88.1686 89.5988 88.7216 89.5988 89.1686 89.1508 89.1686 88.5988L89.1686 87.5988C89.1686 87.0468 88.7216 86.5988 88.1686 86.5988M135.2516 85.9791C136.3546 85.9791 137.2516 86.8761 137.2516 87.9791 137.2516 89.0821 136.3546 89.9791 135.2516 89.9791 134.1486 89.9791 133.2516 89.0821 133.2516 87.9791 133.2516 86.8761 134.1486 85.9791 135.2516 85.9791M135.2516 91.9791C137.4576 91.9791 139.2516 90.1851 139.2516 87.9791 139.2516 85.7731 137.4576 83.9791 135.2516 83.9791 133.0456 83.9791 131.2516 85.7731 131.2516 87.9791 131.2516 90.1851 133.0456 91.9791 135.2516 91.9791M124.2516 85.9791C125.3546 85.9791 126.2516 86.8761 126.2516 87.9791 126.2516 89.0821 125.3546 89.9791 124.2516 89.9791 123.1486 89.9791 122.2516 89.0821 122.2516 87.9791 122.2516 86.8761 123.1486 85.9791 124.2516 85.9791M124.2516 91.9791C126.4576 91.9791 128.2516 90.1851 128.2516 87.9791 128.2516 85.7731 126.4576 83.9791 124.2516 83.9791 122.0456 83.9791 120.2516 85.7731 120.2516 87.9791 120.2516 90.1851 122.0456 91.9791 124.2516 91.9791M113.2516 85.9791C114.3546 85.9791 115.2516 86.8761 115.2516 87.9791 115.2516 89.0821 114.3546 89.9791 113.2516 89.9791 112.1486 89.9791 111.2516 89.0821 111.2516 87.9791 111.2516 86.8761 112.1486 85.9791 113.2516 85.9791M109.2516 87.9791C109.2516 90.1851 111.0456 91.9791 113.2516 91.9791 115.4576 91.9791 117.2516 90.1851 117.2516 87.9791 117.2516 85.7731 115.4576 83.9791 113.2516 83.9791 111.0456 83.9791 109.2516 85.7731 109.2516 87.9791M53.1686 104.5988C52.6156 104.5988 52.1686 105.0468 52.1686 105.5988L52.1686 106.5988C52.1686 107.1508 52.6156 107.5988 53.1686 107.5988 53.7216 107.5988 54.1686 107.1508 54.1686 106.5988L54.1686 105.5988C54.1686 105.0468 53.7216 104.5988 53.1686 104.5988M63.1686 104.5988C62.6156 104.5988 62.1686 105.0468 62.1686 105.5988L62.1686 106.5988C62.1686 107.1508 62.6156 107.5988 63.1686 107.5988 63.7216 107.5988 64.1686 107.1508 64.1686 106.5988L64.1686 105.5988C64.1686 105.0468 63.7216 104.5988 63.1686 104.5988M73.1686 104.5988C72.6156 104.5988 72.1686 105.0468 72.1686 105.5988L72.1686 106.5988C72.1686 107.1508 72.6156 107.5988 73.1686 107.5988 73.7216 107.5988 74.1686 107.1508 74.1686 106.5988L74.1686 105.5988C74.1686 105.0468 73.7216 104.5988 73.1686 104.5988M83.1686 104.5988C82.6156 104.5988 82.1686 105.0468 82.1686 105.5988L82.1686 106.5988C82.1686 107.1508 82.6156 107.5988 83.1686 107.5988 83.7216 107.5988 84.1686 107.1508 84.1686 106.5988L84.1686 105.5988C84.1686 105.0468 83.7216 104.5988 83.1686 104.5988M93.1686 104.5988C92.6156 104.5988 92.1686 105.0468 92.1686 105.5988L92.1686 106.5988C92.1686 107.1508 92.6156 107.5988 93.1686 107.5988 93.7216 107.5988 94.1686 107.1508 94.1686 106.5988L94.1686 105.5988C94.1686 105.0468 93.7216 104.5988 93.1686 104.5988M58.1686 104.5988C57.6156 104.5988 57.1686 105.0468 57.1686 105.5988L57.1686 106.5988C57.1686 107.1508 57.6156 107.5988 58.1686 107.5988 58.7216 107.5988 59.1686 107.1508 59.1686 106.5988L59.1686 105.5988C59.1686 105.0468 58.7216 104.5988 58.1686 104.5988M68.1686 104.5988C67.6156 104.5988 67.1686 105.0468 67.1686 105.5988L67.1686 106.5988C67.1686 107.1508 67.6156 107.5988 68.1686 107.5988 68.7216 107.5988 69.1686 107.1508 69.1686 106.5988L69.1686 105.5988C69.1686 105.0468 68.7216 104.5988 68.1686 104.5988M78.1686 104.5988C77.6156 104.5988 77.1686 105.0468 77.1686 105.5988L77.1686 106.5988C77.1686 107.1508 77.6156 107.5988 78.1686 107.5988 78.7216 107.5988 79.1686 107.1508 79.1686 106.5988L79.1686 105.5988C79.1686 105.0468 78.7216 104.5988 78.1686 104.5988M88.1686 104.5988C87.6156 104.5988 87.1686 105.0468 87.1686 105.5988L87.1686 106.5988C87.1686 107.1508 87.6156 107.5988 88.1686 107.5988 88.7216 107.5988 89.1686 107.1508 89.1686 106.5988L89.1686 105.5988C89.1686 105.0468 88.7216 104.5988 88.1686 104.5988M135.2516 103.9791C136.3546 103.9791 137.2516 104.8761 137.2516 105.9791 137.2516 107.0821 136.3546 107.9791 135.2516 107.9791 134.1486 107.9791 133.2516 107.0821 133.2516 105.9791 133.2516 104.8761 134.1486 103.9791 135.2516 103.9791M135.2516 109.9791C137.4576 109.9791 139.2516 108.1851 139.2516 105.9791 139.2516 103.7731 137.4576 101.9791 135.2516 101.9791 133.0456 101.9791 131.2516 103.7731 131.2516 105.9791 131.2516 108.1851 133.0456 109.9791 135.2516 109.9791M124.2516 103.9791C125.3546 103.9791 126.2516 104.8761 126.2516 105.9791 126.2516 107.0821 125.3546 107.9791 124.2516 107.9791 123.1486 107.9791 122.2516 107.0821 122.2516 105.9791 122.2516 104.8761 123.1486 103.9791 124.2516 103.9791M124.2516 109.9791C126.4576 109.9791 128.2516 108.1851 128.2516 105.9791 128.2516 103.7731 126.4576 101.9791 124.2516 101.9791 122.0456 101.9791 120.2516 103.7731 120.2516 105.9791 120.2516 108.1851 122.0456 109.9791 124.2516 109.9791M113.2516 103.9791C114.3546 103.9791 115.2516 104.8761 115.2516 105.9791 115.2516 107.0821 114.3546 107.9791 113.2516 107.9791 112.1486 107.9791 111.2516 107.0821 111.2516 105.9791 111.2516 104.8761 112.1486 103.9791 113.2516 103.9791M109.2516 105.9791C109.2516 108.1851 111.0456 109.9791 113.2516 109.9791 115.4576 109.9791 117.2516 108.1851 117.2516 105.9791 117.2516 103.7731 115.4576 101.9791 113.2516 101.9791 111.0456 101.9791 109.2516 103.7731 109.2516 105.9791M67.5768 49.5768L67.5768 49.5768C67.0238 49.5768 66.5768 49.1288 66.5768 48.5768L66.5768 38.5768C66.5768 38.0248 67.0238 37.5768 67.5768 37.5768 68.1298 37.5768 68.5768 38.0248 68.5768 38.5768L68.5768 48.5768C68.5768 49.1288 68.1298 49.5768 67.5768 49.5768M69.5768 35.5768L65.5768 35.5768C65.0238 35.5768 64.5768 36.0248 64.5768 36.5768L64.5768 50.5768C64.5768 51.1288 65.0238 51.5768 65.5768 51.5768L69.5768 51.5768C70.1298 51.5768 70.5768 51.1288 70.5768 50.5768L70.5768 36.5768C70.5768 36.0248 70.1298 35.5768 69.5768 35.5768M76.5768 49.5768L76.5768 49.5768C76.0238 49.5768 75.5768 49.1288 75.5768 48.5768L75.5768 38.5768C75.5768 38.0248 76.0238 37.5768 76.5768 37.5768 77.1298 37.5768 77.5768 38.0248 77.5768 38.5768L77.5768 48.5768C77.5768 49.1288 77.1298 49.5768 76.5768 49.5768M78.5768 35.5768L74.5768 35.5768C74.0238 35.5768 73.5768 36.0248 73.5768 36.5768L73.5768 50.5768C73.5768 51.1288 74.0238 51.5768 74.5768 51.5768L78.5768 51.5768C79.1298 51.5768 79.5768 51.1288 79.5768 50.5768L79.5768 36.5768C79.5768 36.0248 79.1298 35.5768 78.5768 35.5768M85.5768 49.5768L85.5768 49.5768C85.0238 49.5768 84.5768 49.1288 84.5768 48.5768L84.5768 38.5768C84.5768 38.0248 85.0238 37.5768 85.5768 37.5768 86.1298 37.5768 86.5768 38.0248 86.5768 38.5768L86.5768 48.5768C86.5768 49.1288 86.1298 49.5768 85.5768 49.5768M87.5768 35.5768L83.5768 35.5768C83.0238 35.5768 82.5768 36.0248 82.5768 36.5768L82.5768 50.5768C82.5768 51.1288 83.0238 51.5768 83.5768 51.5768L87.5768 51.5768C88.1298 51.5768 88.5768 51.1288 88.5768 50.5768L88.5768 36.5768C88.5768 36.0248 88.1298 35.5768 87.5768 35.5768M94.5768 49.5768L94.5768 49.5768C94.0238 49.5768 93.5768 49.1288 93.5768 48.5768L93.5768 38.5768C93.5768 38.0248 94.0238 37.5768 94.5768 37.5768 95.1298 37.5768 95.5768 38.0248 95.5768 38.5768L95.5768 48.5768C95.5768 49.1288 95.1298 49.5768 94.5768 49.5768M96.5768 35.5768L92.5768 35.5768C92.0238 35.5768 91.5768 36.0248 91.5768 36.5768L91.5768 50.5768C91.5768 51.1288 92.0238 51.5768 92.5768 51.5768L96.5768 51.5768C97.1298 51.5768 97.5768 51.1288 97.5768 50.5768L97.5768 36.5768C97.5768 36.0248 97.1298 35.5768 96.5768 35.5768" mask="url(#f)"/>
    </g>
    <rect width="200" height="140"/>
  </g>
</svg>
